<?xml version="1.0" encoding="UTF-8"?>
<svg version="1.1" xmlns="http://www.w3.org/2000/svg" width="375" height="77">
<path d="M0 0 C5.94 0 11.88 0 18 0 C18.99 3.3 19.98 6.6 21 10 C23.46736243 6.49621971 23.46736243 6.49621971 26 0 C36.89 0 47.78 0 59 0 C59 10.89 59 21.78 59 33 C61.97 33.495 61.97 33.495 65 34 C65 38.62 65 43.24 65 48 C53.22772277 48.57425743 53.22772277 48.57425743 48 44 C47.4225 43.566875 46.845 43.13375 46.25 42.6875 C42.83997612 38.08396777 42.72334484 32.05435114 42.5859375 26.53515625 C42.56657135 25.85698349 42.5472052 25.17881073 42.5272522 24.48008728 C42.46808001 22.34101434 42.42132481 20.20188572 42.375 18.0625 C42.33676255 16.60088964 42.29770758 15.13930043 42.2578125 13.67773438 C42.16243181 10.11868457 42.07817433 6.55947413 42 3 C41.78115646 3.54235291 41.56231293 4.08470581 41.33683777 4.64349365 C39.05643977 10.29158721 36.76780149 15.93629004 34.47436523 21.57910156 C33.61970957 23.68501464 32.76715345 25.79178107 31.91674805 27.89941406 C30.69351327 30.93000856 29.46274263 33.95744657 28.23046875 36.984375 C27.85222458 37.92617615 27.47398041 38.86797729 27.08427429 39.83831787 C26.72412735 40.71892883 26.36398041 41.59953979 25.99291992 42.50683594 C25.67981369 43.27960876 25.36670746 44.05238159 25.04411316 44.84857178 C23.93133849 47.14147922 22.58909521 49.01377643 21 51 C16.33287205 41.23445836 12.18077284 31.30242147 8.13867188 21.26611328 C7.10928939 18.71100349 6.0745141 16.15812432 5.0390625 13.60546875 C4.38250163 11.98189651 3.72623995 10.35820324 3.0703125 8.734375 C2.76102814 7.97098816 2.45174377 7.20760132 2.13308716 6.42108154 C0 1.11592854 0 1.11592854 0 0 Z " fill="#FFFFFF" transform="translate(3,15)"/>
<path d="M0 0 C6.33066673 4.53009667 9.57561186 9.94273371 11.15625 17.54296875 C12.08999177 24.29962797 10.50276289 30.67857953 6.97265625 36.4921875 C3.0989273 41.55107998 -1.7623432 44.70061227 -7.84375 46.54296875 C-15.81800008 47.56438955 -23.23075564 47.48260201 -29.84375 42.54296875 C-35.24799382 37.87566727 -39.45757466 32.57581244 -40.15234375 25.3203125 C-40.44137754 16.71060898 -39.91415881 10.16972868 -33.84375 3.54296875 C-24.05962416 -4.7034102 -11.38658336 -6.59904263 0 0 Z M-22.84375 14.54296875 C-25.19617347 17.75081893 -25.3121709 20.63946127 -24.84375 24.54296875 C-23.20610678 27.58430615 -21.74381661 29.82912282 -19.03125 31.98046875 C-15.57940084 32.86808711 -13.26919894 32.50449828 -9.84375 31.54296875 C-6.29511813 28.44735372 -4.55525035 26.28125745 -4.21875 21.54296875 C-4.55525035 16.80468005 -6.29511813 14.63858378 -9.84375 11.54296875 C-15.55228786 9.67472 -18.35284804 10.67870427 -22.84375 14.54296875 Z " fill="#FFFFFF" transform="translate(251.84375,17.45703125)"/>
<path d="M0 0 C7.48864318 4.58488358 12.34012202 9.45522753 14.6640625 18.1171875 C14.86128906 18.98730469 14.86128906 18.98730469 15.0625 19.875 C3.38528217 21.90582049 3.38528217 21.90582049 -1.9375 20.875 C-4.125 17.9375 -4.125 17.9375 -5.9375 14.875 C-9.87445713 13.65812234 -11.9400297 13.45384587 -15.75 15.0625 C-19.25406029 17.96586424 -19.81917597 19.79036305 -20.3125 24.3125 C-19.8653069 28.56083444 -19.14797395 30.07612527 -15.9375 32.875 C-12.13293725 33.98178189 -9.92408347 34.23375763 -6.1875 32.875 C-3.18645906 30.49289145 -3.18645906 30.49289145 -0.9375 23.875 C4.3425 24.205 9.6225 24.535 15.0625 24.875 C13.37250518 34.70769715 10.17038709 40.8282781 2.02734375 46.74609375 C-3.88954694 50.14565917 -11.36390997 49.49260511 -17.9375 48.875 C-25.91314532 46.50357479 -31.27207557 41.69814897 -35.25 34.5 C-37.37329287 26.39288175 -37.54813072 19.11338033 -33.74609375 11.484375 C-26.75446723 -0.02228009 -12.98521695 -5.0514574 0 0 Z " fill="#FFFFFF" transform="translate(104.9375,15.125)"/>
<path d="M0 0 C6.249375 -0.0928125 6.249375 -0.0928125 12.625 -0.1875 C13.92775879 -0.21481201 15.23051758 -0.24212402 16.57275391 -0.27026367 C24.28378566 -0.32577737 28.95629826 0.22684953 34.8125 5.5625 C37.89465729 9.56232224 38.29629191 14.06714016 38 19 C36.70411533 22.45569245 35.58770585 24.41229415 33 27 C33.35030622 31.46481202 34.75387712 35.12196309 36.5625 39.1875 C39 44.67705382 39 44.67705382 39 48 C33.72 48 28.44 48 23 48 C18.05628798 37.90658795 16.06835152 31.35230925 17 20 C18.65 19.67 20.3 19.34 22 19 C22 17.35 22 15.7 22 14 C19.03 13.505 19.03 13.505 16 13 C16 24.55 16 36.1 16 48 C10.72 48 5.44 48 0 48 C0 32.16 0 16.32 0 0 Z " fill="#FFFFFF" transform="translate(268,15)"/>
<path d="M0 0 C5.20397844 2.70922956 7.9851948 6.86574066 9.80078125 12.3125 C10.30061168 18.81029555 9.09107816 23.57891981 4.86328125 28.625 C0.13899065 31.22818053 -4.89278905 31.6692964 -10.19921875 32.3125 C-10.28000516 30.18811661 -10.33831016 28.0628677 -10.38671875 25.9375 C-10.42152344 24.75414063 -10.45632812 23.57078125 -10.4921875 22.3515625 C-10.39550781 21.34867188 -10.29882812 20.34578125 -10.19921875 19.3125 C-9.20921875 18.6525 -8.21921875 17.9925 -7.19921875 17.3125 C-7.19921875 15.9925 -7.19921875 14.6725 -7.19921875 13.3125 C-8.51921875 13.3125 -9.83921875 13.3125 -11.19921875 13.3125 C-11.19921875 24.8625 -11.19921875 36.4125 -11.19921875 48.3125 C-16.47921875 48.3125 -21.75921875 48.3125 -27.19921875 48.3125 C-27.26852182 43.77699918 -27.32811932 39.24337437 -27.36401367 34.70776367 C-27.37899418 33.16863745 -27.39938585 31.62955312 -27.42553711 30.09057617 C-27.75248436 10.33911583 -27.75248436 10.33911583 -22.81738281 4.74658203 C-16.24551926 -1.04763162 -8.46731867 -2.64697706 0 0 Z " fill="#FFFFFF" transform="translate(199.19921875,14.6875)"/>
<path d="M0 0 C12.21 0 24.42 0 37 0 C37 4.29 37 8.58 37 13 C33.37 13 29.74 13 26 13 C26 24.55 26 36.1 26 48 C21.05 48 16.1 48 11 48 C11 36.45 11 24.9 11 13 C7.37 13 3.74 13 0 13 C0 8.71 0 4.42 0 0 Z " fill="#FFFFFF" transform="translate(307,15)"/>
<path d="M0 0 C2.908125 0.0309375 2.908125 0.0309375 5.875 0.0625 C5.875 5.0125 5.875 9.9625 5.875 15.0625 C4.225 15.3925 2.575 15.7225 0.875 16.0625 C1.27095998 19.9429078 1.8389872 22.98183133 3.4375 26.5625 C5.28785715 31.06771741 5.68533758 34.39704997 4.25390625 39.10546875 C2.2700684 43.8049602 -0.31018778 46.72833985 -4.76171875 49.2265625 C-9.12437838 50.76971814 -13.5721869 50.5990268 -18.125 50.0625 C-18.785 49.7325 -19.445 49.4025 -20.125 49.0625 C-20.125 44.4425 -20.125 39.8225 -20.125 35.0625 C-16.66 34.5675 -16.66 34.5675 -13.125 34.0625 C-13.59128944 30.98498968 -14.2826025 28.74729501 -15.6875 25.9375 C-17.81152752 21.13215062 -17.8252437 16.21318143 -17.125 11.0625 C-13.40013927 3.47482073 -8.25055537 -0.08777187 0 0 Z " fill="#FFFFFF" transform="translate(366.125,13.9375)"/>
<path d="M0 0 C2.908125 0.0309375 2.908125 0.0309375 5.875 0.0625 C5.875 5.0125 5.875 9.9625 5.875 15.0625 C4.225 15.3925 2.575 15.7225 0.875 16.0625 C1.27095998 19.9429078 1.8389872 22.98183133 3.4375 26.5625 C5.28785715 31.06771741 5.68533758 34.39704997 4.25390625 39.10546875 C2.2700684 43.8049602 -0.31018778 46.72833985 -4.76171875 49.2265625 C-9.12437838 50.76971814 -13.5721869 50.5990268 -18.125 50.0625 C-18.785 49.7325 -19.445 49.4025 -20.125 49.0625 C-20.125 44.4425 -20.125 39.8225 -20.125 35.0625 C-16.66 34.5675 -16.66 34.5675 -13.125 34.0625 C-13.59128944 30.98498968 -14.2826025 28.74729501 -15.6875 25.9375 C-17.81152752 21.13215062 -17.8252437 16.21318143 -17.125 11.0625 C-13.40013927 3.47482073 -8.25055537 -0.08777187 0 0 Z " fill="#FFFFFF" transform="translate(162.125,13.9375)"/>
</svg>
